<svg xmlns="http://www.w3.org/2000/svg" xmlns:xlink="http://www.w3.org/1999/xlink" width="1080" zoomAndPan="magnify" viewBox="0 0 810 809.999993" height="1080" preserveAspectRatio="xMidYMid meet" version="1.0"><defs><clipPath id="4959d7a545"><path d="M 606 104 L 739 104 L 739 242 L 606 242 Z M 606 104 " clip-rule="nonzero"/></clipPath><clipPath id="4fe268c8d4"><path d="M 671.933594 77.132812 L 766.121094 185.214844 L 696.074219 246.253906 L 601.886719 138.175781 Z M 671.933594 77.132812 " clip-rule="nonzero"/></clipPath><clipPath id="8e1a216fee"><path d="M 700.796875 115.671875 C 707.214844 119.765625 713.765625 125.136719 719.136719 131.296875 C 724.507812 137.460938 728.761719 144.183594 731.902344 151.0625 C 731.953125 151.222656 732.054688 151.335938 732.105469 151.5 C 743.511719 177.667969 739.570312 207.695312 720.808594 224.554688 L 704.484375 238.78125 C 702.234375 240.742188 699.296875 241.730469 696.320312 241.523438 C 693.34375 241.320312 690.570312 239.941406 688.609375 237.691406 L 609.515625 146.929688 C 607.554688 144.679688 606.570312 141.746094 606.773438 138.765625 C 606.976562 135.789062 608.355469 133.015625 610.605469 131.058594 L 626.914062 116.84375 C 646.300781 100.460938 676.382812 100.433594 700.796875 115.671875 Z M 700.796875 115.671875 " clip-rule="nonzero"/></clipPath><clipPath id="9c9d0bb22f"><path d="M 142 153 L 680 153 L 680 647 L 142 647 Z M 142 153 " clip-rule="nonzero"/></clipPath><clipPath id="990e558839"><path d="M 683.789062 256.8125 L 231.003906 651.386719 L 137.128906 543.664062 L 589.910156 149.089844 Z M 683.789062 256.8125 " clip-rule="nonzero"/></clipPath><clipPath id="53726e0558"><path d="M 675.308594 264.203125 L 239.824219 643.703125 C 235.136719 647.785156 228.03125 647.296875 223.949219 642.613281 L 144.855469 551.851562 C 140.773438 547.167969 141.261719 540.058594 145.945312 535.976562 L 581.429688 156.480469 C 586.113281 152.398438 593.222656 152.886719 597.304688 157.570312 L 676.398438 248.332031 C 680.480469 253.015625 679.992188 260.121094 675.308594 264.203125 Z M 675.308594 264.203125 " clip-rule="nonzero"/></clipPath><clipPath id="fd94fadef8"><path d="M 93 560 L 214 560 L 214 678 L 93 678 Z M 93 560 " clip-rule="nonzero"/></clipPath><clipPath id="f2dcd8d3a7"><path d="M 138.953125 724.90625 L 51.769531 624.859375 L 128.628906 557.878906 L 215.816406 657.925781 Z M 138.953125 724.90625 " clip-rule="nonzero"/></clipPath><clipPath id="c19c99dc38"><path d="M 93.878906 667.886719 L 122.269531 564.859375 C 122.863281 562.714844 124.585938 561.066406 126.753906 560.574219 C 128.925781 560.078125 131.191406 560.816406 132.652344 562.492188 L 211.746094 653.257812 C 213.207031 654.933594 213.628906 657.28125 212.84375 659.359375 C 212.054688 661.441406 210.191406 662.921875 207.984375 663.214844 L 102.042969 677.253906 C 99.566406 677.582031 97.085938 676.644531 95.445312 674.761719 C 93.804688 672.878906 93.214844 670.296875 93.878906 667.886719 Z M 93.878906 667.886719 " clip-rule="nonzero"/></clipPath></defs><rect x="-81" width="972" fill="#ffffff" y="-80.999999" height="971.999992" fill-opacity="1"/><rect x="-81" width="972" fill="#ffffff" y="-80.999999" height="971.999992" fill-opacity="1"/><g clip-path="url(#4959d7a545)"><g clip-path="url(#4fe268c8d4)"><g clip-path="url(#8e1a216fee)"><path fill="#9a0b05" d="M 672.171875 77.40625 L 766.121094 185.214844 L 696.074219 246.253906 L 602.125 138.449219 Z M 672.171875 77.40625 " fill-opacity="1" fill-rule="nonzero"/></g></g></g><g clip-path="url(#9c9d0bb22f)"><g clip-path="url(#990e558839)"><g clip-path="url(#53726e0558)"><path fill="#ffd230" d="M 683.789062 256.8125 L 231.425781 651.019531 L 137.546875 543.296875 L 589.910156 149.089844 Z M 683.789062 256.8125 " fill-opacity="1" fill-rule="nonzero"/></g></g></g><g clip-path="url(#fd94fadef8)"><g clip-path="url(#f2dcd8d3a7)"><g clip-path="url(#c19c99dc38)"><path fill="#000000" d="M 137.828125 732.59375 L 44 624.921875 L 125.308594 554.066406 L 219.136719 661.738281 Z M 137.828125 732.59375 " fill-opacity="1" fill-rule="nonzero"/></g></g></g></svg>