<svg xmlns="http://www.w3.org/2000/svg" xmlns:xlink="http://www.w3.org/1999/xlink" width="1080" zoomAndPan="magnify" viewBox="0 0 810 809.999993" height="1080" preserveAspectRatio="xMidYMid meet" version="1.0"><defs><clipPath id="e89d7838c3"><path d="M 563 153 L 674 153 L 674 268 L 563 268 Z M 563 153 " clip-rule="nonzero"/></clipPath><clipPath id="a7758416ba"><path d="M 617.847656 131.066406 L 696.40625 221.214844 L 637.832031 272.257812 L 559.273438 182.109375 Z M 617.847656 131.066406 " clip-rule="nonzero"/></clipPath><clipPath id="0ef67d4480"><path d="M 641.785156 163.0625 C 647.152344 166.484375 652.628906 170.976562 657.117188 176.128906 C 661.609375 181.28125 665.167969 186.90625 667.796875 192.65625 C 667.839844 192.789062 667.921875 192.886719 667.964844 193.019531 C 677.5 214.902344 674.207031 240.011719 658.519531 254.113281 L 646.253906 264.796875 C 644.003906 266.757812 641.070312 267.746094 638.09375 267.539062 C 635.117188 267.335938 632.34375 265.957031 630.382812 263.707031 L 566.664062 190.589844 C 564.703125 188.339844 563.71875 185.40625 563.921875 182.429688 C 564.125 179.453125 565.503906 176.679688 567.753906 174.71875 L 580.003906 164.042969 C 596.214844 150.34375 621.367188 150.320312 641.785156 163.0625 Z M 641.785156 163.0625 " clip-rule="nonzero"/></clipPath><clipPath id="5a95c2db3d"><path d="M 175 195 L 623 195 L 623 607 L 175 607 Z M 175 195 " clip-rule="nonzero"/></clipPath><clipPath id="8821ff5f9f"><path d="M 627.5625 281.085938 L 248.9375 611.035156 L 170.4375 520.953125 L 549.0625 191.007812 Z M 627.5625 281.085938 " clip-rule="nonzero"/></clipPath><clipPath id="9e7ef46ea0"><path d="M 619.078125 288.476562 L 257.703125 603.398438 C 255.453125 605.355469 252.515625 606.34375 249.539062 606.140625 C 246.5625 605.933594 243.789062 604.554688 241.828125 602.308594 L 178.109375 529.1875 C 176.152344 526.9375 175.164062 524.003906 175.367188 521.027344 C 175.574219 518.050781 176.953125 515.277344 179.203125 513.316406 L 540.578125 198.398438 C 542.828125 196.4375 545.765625 195.449219 548.742188 195.65625 C 551.71875 195.859375 554.492188 197.238281 556.453125 199.488281 L 620.171875 272.605469 C 622.128906 274.855469 623.117188 277.789062 622.910156 280.769531 C 622.707031 283.746094 621.328125 286.519531 619.078125 288.476562 Z M 619.078125 288.476562 " clip-rule="nonzero"/></clipPath><clipPath id="f1832525a0"><path d="M 134 536 L 234 536 L 234 633 L 134 633 Z M 134 536 " clip-rule="nonzero"/></clipPath><clipPath id="45f0507a62"><path d="M 172.300781 671.285156 L 100.320312 588.6875 L 163.796875 533.371094 L 235.773438 615.96875 Z M 172.300781 671.285156 " clip-rule="nonzero"/></clipPath><clipPath id="9916037368"><path d="M 134.761719 623.050781 L 157.527344 540.453125 C 158.117188 538.308594 159.839844 536.660156 162.007812 536.167969 C 164.179688 535.671875 166.445312 536.410156 167.90625 538.089844 L 231.625 611.207031 C 233.085938 612.882812 233.507812 615.230469 232.722656 617.3125 C 231.933594 619.394531 230.066406 620.875 227.863281 621.167969 L 142.925781 632.421875 C 140.449219 632.75 137.972656 631.8125 136.328125 629.929688 C 134.6875 628.042969 134.097656 625.460938 134.761719 623.050781 Z M 134.761719 623.050781 " clip-rule="nonzero"/></clipPath></defs><rect x="-81" width="972" fill="#ffffff" y="-80.999999" height="971.999992" fill-opacity="1"/><rect x="-81" width="972" fill="#ffffff" y="-80.999999" height="971.999992" fill-opacity="1"/><g clip-path="url(#e89d7838c3)"><g clip-path="url(#a7758416ba)"><g clip-path="url(#0ef67d4480)"><path fill="#9a0b05" d="M 617.847656 131.066406 L 696.40625 221.214844 L 637.832031 272.257812 L 559.273438 182.109375 Z M 617.847656 131.066406 " fill-opacity="1" fill-rule="nonzero"/></g></g></g><g clip-path="url(#5a95c2db3d)"><g clip-path="url(#8821ff5f9f)"><g clip-path="url(#9e7ef46ea0)"><path fill="#ffd230" d="M 627.5625 281.085938 L 249.289062 610.726562 L 170.789062 520.644531 L 549.0625 191.007812 Z M 627.5625 281.085938 " fill-opacity="1" fill-rule="nonzero"/></g></g></g><g clip-path="url(#f1832525a0)"><g clip-path="url(#45f0507a62)"><g clip-path="url(#9916037368)"><path fill="#000000" d="M 171.023438 678.9375 L 92.5625 588.902344 L 160.554688 529.652344 L 239.015625 619.6875 Z M 171.023438 678.9375 " fill-opacity="1" fill-rule="nonzero"/></g></g></g></svg>