<svg xmlns="http://www.w3.org/2000/svg" xmlns:xlink="http://www.w3.org/1999/xlink" width="1080" zoomAndPan="magnify" viewBox="0 0 810 809.999993" height="1080" preserveAspectRatio="xMidYMid meet" version="1.0"><defs><clipPath id="289e37d4e1"><path d="M 588 87 L 723 87 L 723 222 L 588 222 Z M 588 87 " clip-rule="nonzero"/></clipPath><clipPath id="e884f10a9a"><path d="M 648.835938 59.609375 L 750.207031 160.980469 L 684.507812 226.679688 L 583.136719 125.308594 Z M 648.835938 59.609375 " clip-rule="nonzero"/></clipPath><clipPath id="cea008ab38"><path d="M 680.273438 96.082031 C 686.957031 99.722656 693.859375 104.632812 699.640625 110.414062 C 705.417969 116.191406 710.125 122.609375 713.730469 129.253906 C 713.792969 129.410156 713.902344 129.519531 713.964844 129.675781 C 727.132812 155.003906 725.261719 185.230469 707.699219 203.335938 L 692.386719 218.648438 C 690.277344 220.757812 687.414062 221.945312 684.433594 221.945312 C 681.449219 221.945312 678.585938 220.757812 676.476562 218.648438 L 591.347656 133.519531 C 589.238281 131.410156 588.054688 128.546875 588.054688 125.566406 C 588.054688 122.582031 589.238281 119.71875 591.347656 117.609375 L 606.644531 102.3125 C 624.863281 84.640625 654.871094 82.550781 680.273438 96.082031 Z M 680.273438 96.082031 " clip-rule="nonzero"/></clipPath><clipPath id="2b59753cb8"><path d="M 152 141 L 669 141 L 669 658 L 152 658 Z M 152 141 " clip-rule="nonzero"/></clipPath><clipPath id="0bb629b4b4"><path d="M 672.976562 238.054688 L 248.300781 662.734375 L 147.261719 561.695312 L 571.9375 137.015625 Z M 672.976562 238.054688 " clip-rule="nonzero"/></clipPath><clipPath id="091005b5fb"><path d="M 665.023438 246.011719 L 256.570312 654.460938 C 252.175781 658.855469 245.054688 658.855469 240.660156 654.460938 L 155.53125 569.332031 C 151.136719 564.941406 151.136719 557.816406 155.53125 553.425781 L 563.984375 144.972656 C 568.378906 140.578125 575.5 140.578125 579.894531 144.972656 L 665.023438 230.101562 C 669.414062 234.492188 669.414062 241.617188 665.023438 246.011719 Z M 665.023438 246.011719 " clip-rule="nonzero"/></clipPath><clipPath id="cb9fae238b"><path d="M 112 579 L 231 579 L 231 698 L 112 698 Z M 112 579 " clip-rule="nonzero"/></clipPath><clipPath id="21a6c5e564"><path d="M 161.503906 742.386719 L 67.667969 648.550781 L 139.757812 576.460938 L 233.59375 670.296875 Z M 161.503906 742.386719 " clip-rule="nonzero"/></clipPath><clipPath id="312ad7b895"><path d="M 112.628906 688.589844 L 133.890625 583.859375 C 134.335938 581.679688 135.941406 579.917969 138.070312 579.277344 C 140.203125 578.632812 142.511719 579.214844 144.085938 580.789062 L 229.214844 665.917969 C 230.789062 667.492188 231.367188 669.800781 230.726562 671.933594 C 230.085938 674.0625 228.324219 675.667969 226.144531 676.109375 L 121.414062 697.375 C 118.964844 697.875 116.429688 697.109375 114.660156 695.34375 C 112.894531 693.574219 112.128906 691.039062 112.628906 688.589844 Z M 112.628906 688.589844 " clip-rule="nonzero"/></clipPath></defs><g clip-path="url(#289e37d4e1)"><g clip-path="url(#e884f10a9a)"><g clip-path="url(#cea008ab38)"><path fill="#9a0b05" d="M 649.09375 59.867188 L 750.207031 160.980469 L 684.507812 226.679688 L 583.394531 125.566406 Z M 649.09375 59.867188 " fill-opacity="1" fill-rule="nonzero"/></g></g></g><g clip-path="url(#2b59753cb8)"><g clip-path="url(#0bb629b4b4)"><g clip-path="url(#091005b5fb)"><path fill="#ffd230" d="M 672.976562 238.054688 L 248.695312 662.339844 L 147.65625 561.300781 L 571.9375 137.015625 Z M 672.976562 238.054688 " fill-opacity="1" fill-rule="nonzero"/></g></g></g><g clip-path="url(#cb9fae238b)"><g clip-path="url(#21a6c5e564)"><g clip-path="url(#312ad7b895)"><path fill="#000000" d="M 160.90625 750.132812 L 59.921875 649.148438 L 136.183594 572.886719 L 237.167969 673.871094 Z M 160.90625 750.132812 " fill-opacity="1" fill-rule="nonzero"/></g></g></g></svg>