<svg xmlns="http://www.w3.org/2000/svg" xmlns:xlink="http://www.w3.org/1999/xlink" width="1080" zoomAndPan="magnify" viewBox="0 0 810 809.999993" height="1080" preserveAspectRatio="xMidYMid meet" version="1.0"><defs><g/><clipPath id="7ca33059ce"><path d="M 22.636719 362.664062 L 86.304688 362.664062 L 86.304688 447.222656 L 22.636719 447.222656 Z M 22.636719 362.664062 " clip-rule="nonzero"/></clipPath><clipPath id="a72c6f13fa"><path d="M 25.078125 419.054688 C 23.605469 414.738281 22.636719 409.800781 22.636719 404.96875 C 22.636719 400.136719 23.464844 395.488281 24.9375 391.203125 C 24.984375 391.113281 24.984375 391.023438 25.03125 390.929688 C 30.921875 374.839844 46.472656 362.988281 63.757812 362.761719 L 75.054688 362.761719 C 81.269531 362.761719 86.304688 367.796875 86.304688 374.011719 L 86.304688 435.972656 C 86.304688 442.1875 81.269531 447.222656 75.054688 447.222656 L 63.773438 447.222656 C 46.382812 446.996094 30.828125 435.328125 25.078125 419.054688 Z M 25.078125 419.054688 " clip-rule="nonzero"/></clipPath><clipPath id="a761875ad1"><path d="M 713.457031 367.386719 L 781 367.386719 L 781 442.734375 L 713.457031 442.734375 Z M 713.457031 367.386719 " clip-rule="nonzero"/></clipPath><clipPath id="7cef8aa8de"><path d="M 777.59375 410.582031 L 723.226562 441.648438 C 721.207031 442.804688 718.722656 442.792969 716.710938 441.625 C 714.699219 440.457031 713.457031 438.308594 713.457031 435.980469 L 713.457031 374.019531 C 713.457031 371.691406 714.699219 369.539062 716.710938 368.371094 C 718.722656 367.203125 721.207031 367.195312 723.226562 368.351562 L 777.59375 399.417969 C 779.597656 400.5625 780.832031 402.691406 780.832031 405 C 780.832031 407.304688 779.597656 409.4375 777.59375 410.582031 Z M 777.59375 410.582031 " clip-rule="nonzero"/></clipPath></defs><rect x="-81" width="972" fill="#ffffff" y="-80.999999" height="971.999992" fill-opacity="1"/><rect x="-81" width="972" fill="#ffffff" y="-80.999999" height="971.999992" fill-opacity="1"/><g clip-path="url(#7ca33059ce)"><g clip-path="url(#a72c6f13fa)"><path fill="#9a0b05" d="M 22.636719 447.222656 L 22.636719 362.664062 L 86.304688 362.664062 L 86.304688 447.222656 Z M 22.636719 447.222656 " fill-opacity="1" fill-rule="nonzero"/></g></g><g clip-path="url(#a761875ad1)"><g clip-path="url(#7cef8aa8de)"><path fill="#000000" d="M 787.363281 362.769531 L 787.363281 447.355469 L 713.457031 447.355469 L 713.457031 362.769531 Z M 787.363281 362.769531 " fill-opacity="1" fill-rule="nonzero"/></g></g><g fill="#ffd230" fill-opacity="1"><g transform="translate(93.453536, 445.124998)"><g><path d="M 43.1875 -77.90625 C 43.1875 -79.425781 47.328125 -80.1875 55.609375 -80.1875 C 63.898438 -80.1875 68.046875 -79.425781 68.046875 -77.90625 L 68.046875 -25.3125 C 68.046875 -17.53125 65.257812 -11.175781 59.6875 -6.25 C 54.113281 -1.320312 46.414062 1.140625 36.59375 1.140625 C 26.78125 1.140625 18.800781 -1.394531 12.65625 -6.46875 C 6.507812 -11.550781 3.4375 -18.40625 3.4375 -27.03125 L 3.4375 -77.78125 C 3.4375 -79.3125 7.578125 -80.078125 15.859375 -80.078125 C 24.148438 -80.078125 28.296875 -79.3125 28.296875 -77.78125 L 28.296875 -26.125 C 28.296875 -24.59375 29.097656 -23.367188 30.703125 -22.453125 C 32.378906 -21.535156 34.132812 -21.078125 35.96875 -21.078125 C 37.800781 -21.078125 39.460938 -21.492188 40.953125 -22.328125 C 42.441406 -23.171875 43.1875 -24.4375 43.1875 -26.125 Z M 43.1875 -77.90625 "/></g></g></g><g fill="#ffd230" fill-opacity="1"><g transform="translate(166.65154, 445.124998)"><g><path d="M 40.21875 -1.828125 C 40.21875 -0.304688 36.4375 0.453125 28.875 0.453125 C 21.3125 0.453125 17.53125 -0.304688 17.53125 -1.828125 L 17.53125 -59.34375 L 3.78125 -59.34375 C 2.476562 -59.34375 1.5625 -61.097656 1.03125 -64.609375 C 0.800781 -66.296875 0.6875 -68.015625 0.6875 -69.765625 C 0.6875 -71.523438 0.800781 -73.242188 1.03125 -74.921875 C 1.5625 -78.429688 2.476562 -80.1875 3.78125 -80.1875 L 53.609375 -80.1875 C 54.910156 -80.1875 55.828125 -78.429688 56.359375 -74.921875 C 56.585938 -73.242188 56.703125 -71.523438 56.703125 -69.765625 C 56.703125 -68.015625 56.585938 -66.296875 56.359375 -64.609375 C 55.828125 -61.097656 54.910156 -59.34375 53.609375 -59.34375 L 40.21875 -59.34375 Z M 40.21875 -1.828125 "/></g></g></g><g fill="#ffd230" fill-opacity="1"><g transform="translate(225.416153, 445.124998)"><g><path d="M 13.296875 -19.703125 L 13.296875 -60.484375 L 5.15625 -60.484375 C 3.851562 -60.484375 2.9375 -62.128906 2.40625 -65.421875 C 2.175781 -67.023438 2.0625 -68.664062 2.0625 -70.34375 C 2.0625 -72.019531 2.175781 -73.660156 2.40625 -75.265625 C 2.9375 -78.546875 3.851562 -80.1875 5.15625 -80.1875 L 43.640625 -80.1875 C 44.941406 -80.1875 45.820312 -78.546875 46.28125 -75.265625 C 46.582031 -73.660156 46.734375 -72.019531 46.734375 -70.34375 C 46.734375 -68.664062 46.582031 -67.023438 46.28125 -65.421875 C 45.820312 -62.128906 44.941406 -60.484375 43.640625 -60.484375 L 35.96875 -60.484375 L 35.96875 -19.703125 L 43.984375 -19.703125 C 45.285156 -19.703125 46.203125 -18.0625 46.734375 -14.78125 C 47.046875 -13.175781 47.203125 -11.53125 47.203125 -9.84375 C 47.203125 -8.164062 47.046875 -6.523438 46.734375 -4.921875 C 46.203125 -1.640625 45.285156 0 43.984375 0 L 5.390625 0 C 4.085938 0 3.207031 -1.640625 2.75 -4.921875 C 2.445312 -6.523438 2.296875 -8.164062 2.296875 -9.84375 C 2.296875 -11.53125 2.445312 -13.175781 2.75 -14.78125 C 3.207031 -18.0625 4.085938 -19.703125 5.390625 -19.703125 Z M 13.296875 -19.703125 "/></g></g></g><g fill="#ffd230" fill-opacity="1"><g transform="translate(275.818563, 445.124998)"><g><path d="M 4.578125 -6.765625 L 4.578125 -78.015625 C 4.578125 -79.617188 8.453125 -80.421875 16.203125 -80.421875 C 23.960938 -80.421875 27.84375 -79.617188 27.84375 -78.015625 L 27.84375 -21.875 L 45.484375 -21.875 C 46.859375 -21.875 47.8125 -20.082031 48.34375 -16.5 C 48.570312 -14.738281 48.6875 -12.941406 48.6875 -11.109375 C 48.6875 -9.273438 48.570312 -7.40625 48.34375 -5.5 C 47.726562 -1.832031 46.734375 0 45.359375 0 L 10.078125 0 C 8.398438 0 7.0625 -0.6875 6.0625 -2.0625 C 5.070312 -3.4375 4.578125 -5.003906 4.578125 -6.765625 Z M 4.578125 -6.765625 "/></g></g></g><g fill="#ffd230" fill-opacity="1"><g transform="translate(326.908282, 445.124998)"><g><path d="M 13.296875 -19.703125 L 13.296875 -60.484375 L 5.15625 -60.484375 C 3.851562 -60.484375 2.9375 -62.128906 2.40625 -65.421875 C 2.175781 -67.023438 2.0625 -68.664062 2.0625 -70.34375 C 2.0625 -72.019531 2.175781 -73.660156 2.40625 -75.265625 C 2.9375 -78.546875 3.851562 -80.1875 5.15625 -80.1875 L 43.640625 -80.1875 C 44.941406 -80.1875 45.820312 -78.546875 46.28125 -75.265625 C 46.582031 -73.660156 46.734375 -72.019531 46.734375 -70.34375 C 46.734375 -68.664062 46.582031 -67.023438 46.28125 -65.421875 C 45.820312 -62.128906 44.941406 -60.484375 43.640625 -60.484375 L 35.96875 -60.484375 L 35.96875 -19.703125 L 43.984375 -19.703125 C 45.285156 -19.703125 46.203125 -18.0625 46.734375 -14.78125 C 47.046875 -13.175781 47.203125 -11.53125 47.203125 -9.84375 C 47.203125 -8.164062 47.046875 -6.523438 46.734375 -4.921875 C 46.203125 -1.640625 45.285156 0 43.984375 0 L 5.390625 0 C 4.085938 0 3.207031 -1.640625 2.75 -4.921875 C 2.445312 -6.523438 2.296875 -8.164062 2.296875 -9.84375 C 2.296875 -11.53125 2.445312 -13.175781 2.75 -14.78125 C 3.207031 -18.0625 4.085938 -19.703125 5.390625 -19.703125 Z M 13.296875 -19.703125 "/></g></g></g><path stroke-linecap="butt" transform="matrix(0.75, 0, 0, 0.75, 374.922611, 328.500003)" fill="none" stroke-linejoin="miter" d="M 56.863605 149.645836 C 56.863605 151.593753 52.03548 152.57292 42.384437 152.57292 C 32.754229 152.57292 27.941728 151.593753 27.941728 149.645836 L 27.941728 76.322916 L 10.394852 76.322916 C 8.754227 76.322916 7.587561 74.083332 6.900061 69.614582 C 6.613602 67.473957 6.467769 65.286457 6.467769 63.052082 C 6.467769 60.796873 6.613602 58.593748 6.900061 56.458332 C 7.587561 51.984373 8.754227 49.749998 10.394852 49.749998 L 73.946939 49.749998 C 75.608397 49.749998 76.775064 51.984373 77.441731 56.458332 C 77.749023 58.593748 77.905273 60.796873 77.905273 63.052082 C 77.905273 65.286457 77.749023 67.473957 77.441731 69.614582 C 76.775064 74.083332 75.608397 76.322916 73.946939 76.322916 L 56.863605 76.322916 Z M 136.6084 90.338542 C 138.467776 90.338542 139.394859 93.75 139.394859 100.572917 C 139.394859 102.614584 139.165692 105.031251 138.712567 107.812501 C 138.285484 110.593751 137.488609 111.984376 136.32715 111.984376 L 117.780275 111.984376 L 117.780275 126.572918 L 144.634443 126.572918 C 146.301109 126.572918 147.415693 128.72396 147.988609 133.026044 C 148.295901 134.859377 148.452151 136.817711 148.452151 138.911461 C 148.452151 141.005211 148.155276 143.713544 147.561526 147.041669 C 146.988609 150.348961 146.014651 152.000003 144.634443 152.000003 L 94.670898 152.000003 C 90.983398 152.000003 89.139648 150.489586 89.139648 147.468753 L 89.139648 53.531248 C 89.139648 51.010415 90.25944 49.749998 92.493815 49.749998 L 144.780276 49.749998 C 146.821943 49.749998 147.842776 54.067706 147.842776 62.697915 C 147.842776 71.302082 146.821943 75.609374 144.780276 75.609374 L 117.780275 75.609374 L 117.780275 90.338542 Z M 232.733405 152.286461 C 224.269863 152.286461 219.691738 150.932295 219.004238 148.218753 L 214.186529 129.354169 L 190.936528 129.354169 L 186.728195 147.468753 C 186.134445 150.489586 181.446944 152.000003 172.676111 152.000003 C 168.014652 152.000003 164.556319 151.739586 162.295902 151.213545 C 160.061527 150.66667 158.946943 150.250003 158.946943 149.968753 L 184.801111 51.072915 C 184.801111 50.286456 191.467778 49.895831 204.806321 49.895831 C 218.170905 49.895831 224.853197 50.286456 224.853197 51.072915 L 250.103198 150.109378 C 250.103198 150.776045 247.868823 151.312503 243.394864 151.713545 C 238.926114 152.093753 235.37403 152.286461 232.733405 152.286461 Z M 194.608403 110.807293 L 209.941738 110.807293 L 203.384446 80.562499 L 202.488612 80.562499 Z M 304.446951 48.432289 C 311.556326 48.432289 317.806326 49.43229 323.207368 51.427081 C 328.624035 53.427081 331.337577 56.135415 331.337577 59.55729 C 331.337577 62.958332 330.040702 67.166665 327.446952 72.182291 C 324.879243 77.177083 322.717785 79.671874 320.957368 79.671874 C 320.48341 79.671874 319.926118 79.411458 319.280285 78.890624 C 318.63966 78.343749 317.176118 77.760416 314.894868 77.140624 C 312.613618 76.499999 310.639659 76.177083 308.972992 76.177083 C 303.337576 76.177083 298.785492 78.177083 295.316742 82.171875 C 291.868825 86.166666 290.144867 92.276042 290.144867 100.5 C 290.144867 108.729168 291.9157 114.838543 295.457367 118.833335 C 299.025075 122.828127 303.530284 124.822918 308.972992 124.822918 C 311.207368 124.822918 313.717784 124.515627 316.499035 123.895835 C 319.280285 123.25521 321.254243 122.34896 322.42091 121.187501 C 322.60841 120.994793 322.988618 120.901043 323.561535 120.901043 C 324.155285 120.901043 325.259452 121.994793 326.879243 124.182293 C 328.493827 126.369793 329.98341 129.244794 331.337577 132.812502 C 332.691744 136.354169 333.368827 139.098961 333.368827 141.052086 C 333.368827 144.854169 330.446952 147.875003 324.597993 150.109378 C 318.769868 152.343753 311.863618 153.463545 303.874034 153.463545 C 291.014658 153.463545 280.441741 148.932295 272.170907 139.875002 C 263.894865 130.81771 259.759448 118.03646 259.759448 101.536459 C 259.759448 85.036458 264.014657 72.062499 272.525074 62.624999 C 281.061533 53.161456 291.702158 48.432289 304.446951 48.432289 Z M 427.014665 149.505211 C 427.014665 151.16667 422.09279 152.000003 412.249039 152.000003 C 402.431331 152.000003 397.519872 151.16667 397.519872 149.505211 L 397.519872 115.906251 L 377.051121 115.906251 L 377.051121 149.505211 C 377.051121 151.16667 372.129246 152.000003 362.285495 152.000003 C 352.462578 152.000003 347.556328 151.16667 347.556328 149.505211 L 347.556328 52.677081 C 347.556328 50.630206 352.462578 49.609373 362.285495 49.609373 C 372.129246 49.609373 377.051121 50.630206 377.051121 52.677081 L 377.051121 86.984375 L 397.519872 86.984375 L 397.519872 52.958331 C 397.519872 51.604165 399.946955 50.630206 404.795914 50.036456 C 407.337581 49.843748 409.821956 49.749998 412.249039 49.749998 L 419.702165 50.036456 C 424.577165 50.630206 427.014665 51.604165 427.014665 52.958331 Z M 427.014665 149.505211 " stroke="#ffd230" stroke-width="10.043138" stroke-opacity="1" stroke-miterlimit="4"/></svg>